<svg width="44" height="80" viewBox="0 0 44 80" xmlns="http://www.w3.org/2000/svg" shape-rendering="crispEdges">
<rect x="8" y="8" width="4" height="4" fill="#909890"/>
<rect x="8" y="12" width="4" height="4" fill="#909890"/>
<rect x="8" y="16" width="4" height="4" fill="#909890"/>
<rect x="8" y="20" width="4" height="4" fill="#909890"/>
<rect x="8" y="24" width="4" height="4" fill="#909890"/>
<rect x="8" y="28" width="4" height="4" fill="#909890"/>
<rect x="8" y="32" width="4" height="4" fill="#909890"/>
<rect x="8" y="36" width="4" height="4" fill="#909890"/>
<rect x="8" y="40" width="4" height="4" fill="#909890"/>
<rect x="8" y="44" width="4" height="4" fill="#909890"/>
<rect x="8" y="48" width="4" height="4" fill="#909890"/>
<rect x="8" y="52" width="4" height="4" fill="#909890"/>
<rect x="8" y="56" width="4" height="4" fill="#909890"/>
<rect x="8" y="60" width="4" height="4" fill="#909890"/>
<rect x="8" y="64" width="4" height="4" fill="#909890"/>
<rect x="8" y="68" width="4" height="4" fill="#909890"/>
<rect x="8" y="72" width="4" height="4" fill="#909890"/>
<rect x="12" y="12" width="4" height="4" fill="#707870"/>
<rect x="12" y="16" width="4" height="4" fill="#707870"/>
<rect x="12" y="20" width="4" height="4" fill="#707870"/>
<rect x="12" y="24" width="4" height="4" fill="#707870"/>
<rect x="12" y="28" width="4" height="4" fill="#707870"/>
<rect x="12" y="32" width="4" height="4" fill="#707870"/>
<rect x="12" y="36" width="4" height="4" fill="#707870"/>
<rect x="12" y="40" width="4" height="4" fill="#707870"/>
<rect x="12" y="44" width="4" height="4" fill="#707870"/>
<rect x="12" y="48" width="4" height="4" fill="#707870"/>
<rect x="12" y="52" width="4" height="4" fill="#707870"/>
<rect x="12" y="56" width="4" height="4" fill="#707870"/>
<rect x="12" y="60" width="4" height="4" fill="#707870"/>
<rect x="12" y="64" width="4" height="4" fill="#707870"/>
<rect x="12" y="68" width="4" height="4" fill="#707870"/>
<rect x="16" y="8" width="4" height="4" fill="#50c870"/>
<rect x="20" y="8" width="4" height="4" fill="#50c870"/>
<rect x="24" y="8" width="4" height="4" fill="#50c870"/>
<rect x="28" y="8" width="4" height="4" fill="#30a850"/>
<rect x="16" y="12" width="4" height="4" fill="#50c870"/>
<rect x="20" y="12" width="4" height="4" fill="#50c870"/>
<rect x="24" y="12" width="4" height="4" fill="#50c870"/>
<rect x="28" y="12" width="4" height="4" fill="#50c870"/>
<rect x="32" y="12" width="4" height="4" fill="#30a850"/>
<rect x="16" y="16" width="4" height="4" fill="#80f8a0"/>
<rect x="20" y="16" width="4" height="4" fill="#50c870"/>
<rect x="24" y="16" width="4" height="4" fill="#50c870"/>
<rect x="28" y="16" width="4" height="4" fill="#50c870"/>
<rect x="32" y="16" width="4" height="4" fill="#30a850"/>
<rect x="16" y="20" width="4" height="4" fill="#50c870"/>
<rect x="20" y="20" width="4" height="4" fill="#50c870"/>
<rect x="24" y="20" width="4" height="4" fill="#50c870"/>
<rect x="28" y="20" width="4" height="4" fill="#30a850"/>
<rect x="16" y="24" width="4" height="4" fill="#50c870"/>
<rect x="20" y="24" width="4" height="4" fill="#50c870"/>
<rect x="24" y="24" width="4" height="4" fill="#30a850"/>
<rect x="0" y="72" width="4" height="4" fill="#909890"/>
<rect x="4" y="72" width="4" height="4" fill="#909890"/>
<rect x="8" y="72" width="4" height="4" fill="#909890"/>
<rect x="12" y="72" width="4" height="4" fill="#909890"/>
<rect x="16" y="72" width="4" height="4" fill="#909890"/>
<rect x="0" y="76" width="4" height="4" fill="#14141e"/>
<rect x="4" y="76" width="4" height="4" fill="#14141e"/>
<rect x="8" y="76" width="4" height="4" fill="#14141e"/>
<rect x="12" y="76" width="4" height="4" fill="#14141e"/>
<rect x="16" y="76" width="4" height="4" fill="#14141e"/>
<rect x="36" y="8" width="4" height="4" fill="#80f8a0"/>
<rect x="40" y="16" width="4" height="4" fill="#80f8a0"/>
<rect x="32" y="24" width="4" height="4" fill="#80f8a0"/>
<rect x="4" y="8" width="4" height="4" fill="#14141e"/>
<rect x="16" y="8" width="4" height="4" fill="#14141e"/>
<rect x="4" y="12" width="4" height="4" fill="#14141e"/>
<rect x="16" y="12" width="4" height="4" fill="#14141e"/>
<rect x="4" y="16" width="4" height="4" fill="#14141e"/>
<rect x="16" y="16" width="4" height="4" fill="#14141e"/>
<rect x="4" y="20" width="4" height="4" fill="#14141e"/>
<rect x="16" y="20" width="4" height="4" fill="#14141e"/>
<rect x="4" y="24" width="4" height="4" fill="#14141e"/>
<rect x="16" y="24" width="4" height="4" fill="#14141e"/>
<rect x="4" y="28" width="4" height="4" fill="#14141e"/>
<rect x="16" y="28" width="4" height="4" fill="#14141e"/>
<rect x="4" y="32" width="4" height="4" fill="#14141e"/>
<rect x="16" y="32" width="4" height="4" fill="#14141e"/>
<rect x="4" y="36" width="4" height="4" fill="#14141e"/>
<rect x="16" y="36" width="4" height="4" fill="#14141e"/>
<rect x="4" y="40" width="4" height="4" fill="#14141e"/>
<rect x="16" y="40" width="4" height="4" fill="#14141e"/>
<rect x="4" y="44" width="4" height="4" fill="#14141e"/>
<rect x="16" y="44" width="4" height="4" fill="#14141e"/>
<rect x="4" y="48" width="4" height="4" fill="#14141e"/>
<rect x="16" y="48" width="4" height="4" fill="#14141e"/>
<rect x="4" y="52" width="4" height="4" fill="#14141e"/>
<rect x="16" y="52" width="4" height="4" fill="#14141e"/>
<rect x="4" y="56" width="4" height="4" fill="#14141e"/>
<rect x="16" y="56" width="4" height="4" fill="#14141e"/>
<rect x="4" y="60" width="4" height="4" fill="#14141e"/>
<rect x="16" y="60" width="4" height="4" fill="#14141e"/>
<rect x="4" y="64" width="4" height="4" fill="#14141e"/>
<rect x="16" y="64" width="4" height="4" fill="#14141e"/>
<rect x="4" y="68" width="4" height="4" fill="#14141e"/>
<rect x="16" y="68" width="4" height="4" fill="#14141e"/>
</svg>