<svg width="148" height="192" viewBox="0 0 148 192" xmlns="http://www.w3.org/2000/svg" shape-rendering="crispEdges">
<rect x="80" y="28" width="4" height="4" fill="#754b3d"/>
<rect x="84" y="28" width="4" height="4" fill="#963535"/>
<rect x="88" y="28" width="4" height="4" fill="#752c2f"/>
<rect x="56" y="32" width="4" height="4" fill="#1f1b25"/>
<rect x="60" y="32" width="4" height="4" fill="#5b3b33"/>
<rect x="64" y="32" width="4" height="4" fill="#5b3b33"/>
<rect x="76" y="32" width="4" height="4" fill="#754b3d"/>
<rect x="80" y="32" width="4" height="4" fill="#754b3d"/>
<rect x="84" y="32" width="4" height="4" fill="#452e2b"/>
<rect x="60" y="36" width="4" height="4" fill="#452e2b"/>
<rect x="64" y="36" width="4" height="4" fill="#452e2b"/>
<rect x="68" y="36" width="4" height="4" fill="#5b3b33"/>
<rect x="76" y="36" width="4" height="4" fill="#5b3b33"/>
<rect x="80" y="36" width="4" height="4" fill="#5b3b33"/>
<rect x="64" y="40" width="4" height="4" fill="#452e2b"/>
<rect x="68" y="40" width="4" height="4" fill="#5b3b33"/>
<rect x="72" y="40" width="4" height="4" fill="#452e2b"/>
<rect x="76" y="40" width="4" height="4" fill="#452e2b"/>
<rect x="80" y="40" width="4" height="4" fill="#452e2b"/>
<rect x="84" y="40" width="4" height="4" fill="#5b3b33"/>
<rect x="88" y="40" width="4" height="4" fill="#452e2b"/>
<rect x="92" y="40" width="4" height="4" fill="#351b21"/>
<rect x="56" y="44" width="4" height="4" fill="#5b3b33"/>
<rect x="60" y="44" width="4" height="4" fill="#754b3d"/>
<rect x="64" y="44" width="4" height="4" fill="#5b3b33"/>
<rect x="68" y="44" width="4" height="4" fill="#351b21"/>
<rect x="72" y="44" width="4" height="4" fill="#5b3b33"/>
<rect x="76" y="44" width="4" height="4" fill="#452e2b"/>
<rect x="80" y="44" width="4" height="4" fill="#452e2b"/>
<rect x="84" y="44" width="4" height="4" fill="#754b3d"/>
<rect x="88" y="44" width="4" height="4" fill="#5b3b33"/>
<rect x="92" y="44" width="4" height="4" fill="#351b21"/>
<rect x="96" y="44" width="4" height="4" fill="#351b21"/>
<rect x="56" y="48" width="4" height="4" fill="#754b3d"/>
<rect x="60" y="48" width="4" height="4" fill="#452e2b"/>
<rect x="64" y="48" width="4" height="4" fill="#1f1b25"/>
<rect x="68" y="48" width="4" height="4" fill="#452e2b"/>
<rect x="72" y="48" width="4" height="4" fill="#452e2b"/>
<rect x="76" y="48" width="4" height="4" fill="#351b21"/>
<rect x="84" y="48" width="4" height="4" fill="#351b21"/>
<rect x="88" y="48" width="4" height="4" fill="#754b3d"/>
<rect x="92" y="48" width="4" height="4" fill="#754b3d"/>
<rect x="68" y="52" width="4" height="4" fill="#5b3b33"/>
<rect x="72" y="52" width="4" height="4" fill="#351b21"/>
<rect x="92" y="52" width="4" height="4" fill="#5b3b33"/>
<rect x="96" y="52" width="4" height="4" fill="#5b3b33"/>
<rect x="52" y="56" width="4" height="4" fill="#bd6a4c"/>
<rect x="56" y="56" width="4" height="4" fill="#bf433d"/>
<rect x="60" y="56" width="4" height="4" fill="#a53938"/>
<rect x="76" y="56" width="4" height="4" fill="#752c2f"/>
<rect x="80" y="56" width="4" height="4" fill="#863032"/>
<rect x="84" y="56" width="4" height="4" fill="#471c23"/>
<rect x="88" y="56" width="4" height="4" fill="#351b21"/>
<rect x="100" y="56" width="4" height="4" fill="#452e2b"/>
<rect x="44" y="60" width="4" height="4" fill="#452e2b"/>
<rect x="48" y="60" width="4" height="4" fill="#bd6a4c"/>
<rect x="52" y="60" width="4" height="4" fill="#bf433d"/>
<rect x="56" y="60" width="4" height="4" fill="#bf433d"/>
<rect x="60" y="60" width="4" height="4" fill="#963535"/>
<rect x="64" y="60" width="4" height="4" fill="#863032"/>
<rect x="68" y="60" width="4" height="4" fill="#a53938"/>
<rect x="72" y="60" width="4" height="4" fill="#a53938"/>
<rect x="76" y="60" width="4" height="4" fill="#a53938"/>
<rect x="80" y="60" width="4" height="4" fill="#a53938"/>
<rect x="84" y="60" width="4" height="4" fill="#66252a"/>
<rect x="88" y="60" width="4" height="4" fill="#66252a"/>
<rect x="92" y="60" width="4" height="4" fill="#66252a"/>
<rect x="96" y="60" width="4" height="4" fill="#471c23"/>
<rect x="100" y="60" width="4" height="4" fill="#66252a"/>
<rect x="104" y="60" width="4" height="4" fill="#66252a"/>
<rect x="44" y="64" width="4" height="4" fill="#752c2f"/>
<rect x="48" y="64" width="4" height="4" fill="#bf433d"/>
<rect x="52" y="64" width="4" height="4" fill="#bf433d"/>
<rect x="56" y="64" width="4" height="4" fill="#963535"/>
<rect x="60" y="64" width="4" height="4" fill="#752c2f"/>
<rect x="64" y="64" width="4" height="4" fill="#963535"/>
<rect x="68" y="64" width="4" height="4" fill="#b23e3b"/>
<rect x="72" y="64" width="4" height="4" fill="#bf433d"/>
<rect x="76" y="64" width="4" height="4" fill="#b23e3b"/>
<rect x="80" y="64" width="4" height="4" fill="#b23e3b"/>
<rect x="84" y="64" width="4" height="4" fill="#863032"/>
<rect x="88" y="64" width="4" height="4" fill="#863032"/>
<rect x="92" y="64" width="4" height="4" fill="#a53938"/>
<rect x="96" y="64" width="4" height="4" fill="#863032"/>
<rect x="100" y="64" width="4" height="4" fill="#66252a"/>
<rect x="104" y="64" width="4" height="4" fill="#562127"/>
<rect x="108" y="64" width="4" height="4" fill="#562127"/>
<rect x="44" y="68" width="4" height="4" fill="#b23e3b"/>
<rect x="48" y="68" width="4" height="4" fill="#bf433d"/>
<rect x="52" y="68" width="4" height="4" fill="#b23e3b"/>
<rect x="56" y="68" width="4" height="4" fill="#a53938"/>
<rect x="60" y="68" width="4" height="4" fill="#963535"/>
<rect x="64" y="68" width="4" height="4" fill="#a53938"/>
<rect x="68" y="68" width="4" height="4" fill="#b23e3b"/>
<rect x="72" y="68" width="4" height="4" fill="#bf433d"/>
<rect x="76" y="68" width="4" height="4" fill="#bf433d"/>
<rect x="80" y="68" width="4" height="4" fill="#bf433d"/>
<rect x="84" y="68" width="4" height="4" fill="#b23e3b"/>
<rect x="88" y="68" width="4" height="4" fill="#66252a"/>
<rect x="92" y="68" width="4" height="4" fill="#863032"/>
<rect x="96" y="68" width="4" height="4" fill="#a53938"/>
<rect x="100" y="68" width="4" height="4" fill="#963535"/>
<rect x="104" y="68" width="4" height="4" fill="#562127"/>
<rect x="108" y="68" width="4" height="4" fill="#562127"/>
<rect x="36" y="72" width="4" height="4" fill="#a53938"/>
<rect x="40" y="72" width="4" height="4" fill="#a53938"/>
<rect x="44" y="72" width="4" height="4" fill="#bf433d"/>
<rect x="48" y="72" width="4" height="4" fill="#bf433d"/>
<rect x="52" y="72" width="4" height="4" fill="#b23e3b"/>
<rect x="56" y="72" width="4" height="4" fill="#bf433d"/>
<rect x="60" y="72" width="4" height="4" fill="#b23e3b"/>
<rect x="64" y="72" width="4" height="4" fill="#b23e3b"/>
<rect x="68" y="72" width="4" height="4" fill="#bf433d"/>
<rect x="72" y="72" width="4" height="4" fill="#bf433d"/>
<rect x="76" y="72" width="4" height="4" fill="#bf433d"/>
<rect x="80" y="72" width="4" height="4" fill="#bf433d"/>
<rect x="84" y="72" width="4" height="4" fill="#752c2f"/>
<rect x="88" y="72" width="4" height="4" fill="#351b21"/>
<rect x="92" y="72" width="4" height="4" fill="#351b21"/>
<rect x="96" y="72" width="4" height="4" fill="#b23e3b"/>
<rect x="100" y="72" width="4" height="4" fill="#b23e3b"/>
<rect x="104" y="72" width="4" height="4" fill="#66252a"/>
<rect x="108" y="72" width="4" height="4" fill="#471c23"/>
<rect x="112" y="72" width="4" height="4" fill="#562127"/>
<rect x="36" y="76" width="4" height="4" fill="#bf433d"/>
<rect x="40" y="76" width="4" height="4" fill="#b23e3b"/>
<rect x="44" y="76" width="4" height="4" fill="#bf433d"/>
<rect x="48" y="76" width="4" height="4" fill="#bf433d"/>
<rect x="52" y="76" width="4" height="4" fill="#bf433d"/>
<rect x="56" y="76" width="4" height="4" fill="#963535"/>
<rect x="60" y="76" width="4" height="4" fill="#66252a"/>
<rect x="64" y="76" width="4" height="4" fill="#963535"/>
<rect x="68" y="76" width="4" height="4" fill="#bf433d"/>
<rect x="72" y="76" width="4" height="4" fill="#bf433d"/>
<rect x="76" y="76" width="4" height="4" fill="#bf433d"/>
<rect x="80" y="76" width="4" height="4" fill="#bf433d"/>
<rect x="84" y="76" width="4" height="4" fill="#471c23"/>
<rect x="96" y="76" width="4" height="4" fill="#b23e3b"/>
<rect x="100" y="76" width="4" height="4" fill="#a53938"/>
<rect x="104" y="76" width="4" height="4" fill="#752c2f"/>
<rect x="108" y="76" width="4" height="4" fill="#562127"/>
<rect x="112" y="76" width="4" height="4" fill="#66252a"/>
<rect x="116" y="76" width="4" height="4" fill="#471c23"/>
<rect x="32" y="80" width="4" height="4" fill="#66252a"/>
<rect x="36" y="80" width="4" height="4" fill="#bf433d"/>
<rect x="40" y="80" width="4" height="4" fill="#a53938"/>
<rect x="44" y="80" width="4" height="4" fill="#b23e3b"/>
<rect x="48" y="80" width="4" height="4" fill="#bf433d"/>
<rect x="52" y="80" width="4" height="4" fill="#963535"/>
<rect x="56" y="80" width="4" height="4" fill="#66252a"/>
<rect x="60" y="80" width="4" height="4" fill="#351b21"/>
<rect x="64" y="80" width="4" height="4" fill="#752c2f"/>
<rect x="68" y="80" width="4" height="4" fill="#bf433d"/>
<rect x="72" y="80" width="4" height="4" fill="#bf433d"/>
<rect x="76" y="80" width="4" height="4" fill="#bf433d"/>
<rect x="80" y="80" width="4" height="4" fill="#a53938"/>
<rect x="84" y="80" width="4" height="4" fill="#863032"/>
<rect x="88" y="80" width="4" height="4" fill="#562127"/>
<rect x="92" y="80" width="4" height="4" fill="#752c2f"/>
<rect x="96" y="80" width="4" height="4" fill="#b23e3b"/>
<rect x="100" y="80" width="4" height="4" fill="#a53938"/>
<rect x="104" y="80" width="4" height="4" fill="#963535"/>
<rect x="108" y="80" width="4" height="4" fill="#752c2f"/>
<rect x="112" y="80" width="4" height="4" fill="#562127"/>
<rect x="116" y="80" width="4" height="4" fill="#562127"/>
<rect x="120" y="80" width="4" height="4" fill="#471c23"/>
<rect x="32" y="84" width="4" height="4" fill="#863032"/>
<rect x="36" y="84" width="4" height="4" fill="#a53938"/>
<rect x="40" y="84" width="4" height="4" fill="#b23e3b"/>
<rect x="44" y="84" width="4" height="4" fill="#bf433d"/>
<rect x="48" y="84" width="4" height="4" fill="#a53938"/>
<rect x="52" y="84" width="4" height="4" fill="#66252a"/>
<rect x="56" y="84" width="4" height="4" fill="#471c23"/>
<rect x="60" y="84" width="4" height="4" fill="#351b21"/>
<rect x="64" y="84" width="4" height="4" fill="#752c2f"/>
<rect x="68" y="84" width="4" height="4" fill="#bf433d"/>
<rect x="72" y="84" width="4" height="4" fill="#bf433d"/>
<rect x="76" y="84" width="4" height="4" fill="#b23e3b"/>
<rect x="80" y="84" width="4" height="4" fill="#963535"/>
<rect x="84" y="84" width="4" height="4" fill="#863032"/>
<rect x="88" y="84" width="4" height="4" fill="#863032"/>
<rect x="92" y="84" width="4" height="4" fill="#963535"/>
<rect x="96" y="84" width="4" height="4" fill="#a53938"/>
<rect x="100" y="84" width="4" height="4" fill="#863032"/>
<rect x="104" y="84" width="4" height="4" fill="#863032"/>
<rect x="108" y="84" width="4" height="4" fill="#752c2f"/>
<rect x="112" y="84" width="4" height="4" fill="#562127"/>
<rect x="116" y="84" width="4" height="4" fill="#66252a"/>
<rect x="120" y="84" width="4" height="4" fill="#562127"/>
<rect x="28" y="88" width="4" height="4" fill="#66252a"/>
<rect x="32" y="88" width="4" height="4" fill="#b23e3b"/>
<rect x="36" y="88" width="4" height="4" fill="#a53938"/>
<rect x="40" y="88" width="4" height="4" fill="#b23e3b"/>
<rect x="44" y="88" width="4" height="4" fill="#bf433d"/>
<rect x="48" y="88" width="4" height="4" fill="#752c2f"/>
<rect x="52" y="88" width="4" height="4" fill="#471c23"/>
<rect x="56" y="88" width="4" height="4" fill="#471c23"/>
<rect x="60" y="88" width="4" height="4" fill="#562127"/>
<rect x="64" y="88" width="4" height="4" fill="#863032"/>
<rect x="68" y="88" width="4" height="4" fill="#bf433d"/>
<rect x="72" y="88" width="4" height="4" fill="#bf433d"/>
<rect x="76" y="88" width="4" height="4" fill="#b23e3b"/>
<rect x="80" y="88" width="4" height="4" fill="#a53938"/>
<rect x="84" y="88" width="4" height="4" fill="#863032"/>
<rect x="88" y="88" width="4" height="4" fill="#bf433d"/>
<rect x="92" y="88" width="4" height="4" fill="#a53938"/>
<rect x="96" y="88" width="4" height="4" fill="#863032"/>
<rect x="100" y="88" width="4" height="4" fill="#562127"/>
<rect x="104" y="88" width="4" height="4" fill="#471c23"/>
<rect x="108" y="88" width="4" height="4" fill="#66252a"/>
<rect x="112" y="88" width="4" height="4" fill="#752c2f"/>
<rect x="116" y="88" width="4" height="4" fill="#66252a"/>
<rect x="120" y="88" width="4" height="4" fill="#863032"/>
<rect x="124" y="88" width="4" height="4" fill="#66252a"/>
<rect x="32" y="92" width="4" height="4" fill="#a53938"/>
<rect x="36" y="92" width="4" height="4" fill="#a53938"/>
<rect x="40" y="92" width="4" height="4" fill="#b23e3b"/>
<rect x="44" y="92" width="4" height="4" fill="#bf433d"/>
<rect x="48" y="92" width="4" height="4" fill="#752c2f"/>
<rect x="52" y="92" width="4" height="4" fill="#471c23"/>
<rect x="56" y="92" width="4" height="4" fill="#562127"/>
<rect x="60" y="92" width="4" height="4" fill="#562127"/>
<rect x="64" y="92" width="4" height="4" fill="#a53938"/>
<rect x="68" y="92" width="4" height="4" fill="#bf433d"/>
<rect x="72" y="92" width="4" height="4" fill="#b23e3b"/>
<rect x="76" y="92" width="4" height="4" fill="#a53938"/>
<rect x="80" y="92" width="4" height="4" fill="#b23e3b"/>
<rect x="84" y="92" width="4" height="4" fill="#b23e3b"/>
<rect x="88" y="92" width="4" height="4" fill="#b23e3b"/>
<rect x="92" y="92" width="4" height="4" fill="#963535"/>
<rect x="96" y="92" width="4" height="4" fill="#66252a"/>
<rect x="108" y="92" width="4" height="4" fill="#66252a"/>
<rect x="112" y="92" width="4" height="4" fill="#752c2f"/>
<rect x="116" y="92" width="4" height="4" fill="#66252a"/>
<rect x="120" y="92" width="4" height="4" fill="#863032"/>
<rect x="124" y="92" width="4" height="4" fill="#752c2f"/>
<rect x="32" y="96" width="4" height="4" fill="#863032"/>
<rect x="36" y="96" width="4" height="4" fill="#752c2f"/>
<rect x="40" y="96" width="4" height="4" fill="#752c2f"/>
<rect x="44" y="96" width="4" height="4" fill="#bf433d"/>
<rect x="48" y="96" width="4" height="4" fill="#863032"/>
<rect x="52" y="96" width="4" height="4" fill="#562127"/>
<rect x="56" y="96" width="4" height="4" fill="#562127"/>
<rect x="60" y="96" width="4" height="4" fill="#863032"/>
<rect x="64" y="96" width="4" height="4" fill="#bf433d"/>
<rect x="68" y="96" width="4" height="4" fill="#bf433d"/>
<rect x="72" y="96" width="4" height="4" fill="#a53938"/>
<rect x="76" y="96" width="4" height="4" fill="#a53938"/>
<rect x="80" y="96" width="4" height="4" fill="#963535"/>
<rect x="84" y="96" width="4" height="4" fill="#963535"/>
<rect x="88" y="96" width="4" height="4" fill="#a53938"/>
<rect x="92" y="96" width="4" height="4" fill="#863032"/>
<rect x="96" y="96" width="4" height="4" fill="#752c2f"/>
<rect x="104" y="96" width="4" height="4" fill="#351b21"/>
<rect x="108" y="96" width="4" height="4" fill="#66252a"/>
<rect x="112" y="96" width="4" height="4" fill="#752c2f"/>
<rect x="116" y="96" width="4" height="4" fill="#752c2f"/>
<rect x="120" y="96" width="4" height="4" fill="#752c2f"/>
<rect x="124" y="96" width="4" height="4" fill="#562127"/>
<rect x="24" y="100" width="4" height="4" fill="#351b21"/>
<rect x="28" y="100" width="4" height="4" fill="#471c23"/>
<rect x="32" y="100" width="4" height="4" fill="#471c23"/>
<rect x="36" y="100" width="4" height="4" fill="#351b21"/>
<rect x="40" y="100" width="4" height="4" fill="#752c2f"/>
<rect x="44" y="100" width="4" height="4" fill="#bf433d"/>
<rect x="48" y="100" width="4" height="4" fill="#b23e3b"/>
<rect x="52" y="100" width="4" height="4" fill="#863032"/>
<rect x="56" y="100" width="4" height="4" fill="#963535"/>
<rect x="60" y="100" width="4" height="4" fill="#bf433d"/>
<rect x="64" y="100" width="4" height="4" fill="#bf433d"/>
<rect x="68" y="100" width="4" height="4" fill="#bf433d"/>
<rect x="72" y="100" width="4" height="4" fill="#a53938"/>
<rect x="76" y="100" width="4" height="4" fill="#963535"/>
<rect x="80" y="100" width="4" height="4" fill="#963535"/>
<rect x="84" y="100" width="4" height="4" fill="#963535"/>
<rect x="88" y="100" width="4" height="4" fill="#863032"/>
<rect x="92" y="100" width="4" height="4" fill="#863032"/>
<rect x="96" y="100" width="4" height="4" fill="#863032"/>
<rect x="100" y="100" width="4" height="4" fill="#752c2f"/>
<rect x="104" y="100" width="4" height="4" fill="#562127"/>
<rect x="108" y="100" width="4" height="4" fill="#66252a"/>
<rect x="112" y="100" width="4" height="4" fill="#66252a"/>
<rect x="116" y="100" width="4" height="4" fill="#351b21"/>
<rect x="120" y="100" width="4" height="4" fill="#66252a"/>
<rect x="124" y="100" width="4" height="4" fill="#562127"/>
<rect x="24" y="104" width="4" height="4" fill="#562127"/>
<rect x="28" y="104" width="4" height="4" fill="#66252a"/>
<rect x="32" y="104" width="4" height="4" fill="#471c23"/>
<rect x="36" y="104" width="4" height="4" fill="#66252a"/>
<rect x="40" y="104" width="4" height="4" fill="#a53938"/>
<rect x="44" y="104" width="4" height="4" fill="#b23e3b"/>
<rect x="48" y="104" width="4" height="4" fill="#a53938"/>
<rect x="52" y="104" width="4" height="4" fill="#963535"/>
<rect x="56" y="104" width="4" height="4" fill="#963535"/>
<rect x="60" y="104" width="4" height="4" fill="#a53938"/>
<rect x="64" y="104" width="4" height="4" fill="#b23e3b"/>
<rect x="68" y="104" width="4" height="4" fill="#b23e3b"/>
<rect x="72" y="104" width="4" height="4" fill="#a53938"/>
<rect x="76" y="104" width="4" height="4" fill="#963535"/>
<rect x="80" y="104" width="4" height="4" fill="#963535"/>
<rect x="84" y="104" width="4" height="4" fill="#863032"/>
<rect x="88" y="104" width="4" height="4" fill="#863032"/>
<rect x="92" y="104" width="4" height="4" fill="#752c2f"/>
<rect x="96" y="104" width="4" height="4" fill="#863032"/>
<rect x="100" y="104" width="4" height="4" fill="#752c2f"/>
<rect x="104" y="104" width="4" height="4" fill="#863032"/>
<rect x="108" y="104" width="4" height="4" fill="#863032"/>
<rect x="112" y="104" width="4" height="4" fill="#66252a"/>
<rect x="116" y="104" width="4" height="4" fill="#471c23"/>
<rect x="120" y="104" width="4" height="4" fill="#471c23"/>
<rect x="124" y="104" width="4" height="4" fill="#66252a"/>
<rect x="24" y="108" width="4" height="4" fill="#66252a"/>
<rect x="28" y="108" width="4" height="4" fill="#863032"/>
<rect x="32" y="108" width="4" height="4" fill="#963535"/>
<rect x="36" y="108" width="4" height="4" fill="#963535"/>
<rect x="40" y="108" width="4" height="4" fill="#b23e3b"/>
<rect x="44" y="108" width="4" height="4" fill="#b23e3b"/>
<rect x="48" y="108" width="4" height="4" fill="#963535"/>
<rect x="52" y="108" width="4" height="4" fill="#863032"/>
<rect x="56" y="108" width="4" height="4" fill="#66252a"/>
<rect x="60" y="108" width="4" height="4" fill="#752c2f"/>
<rect x="64" y="108" width="4" height="4" fill="#863032"/>
<rect x="68" y="108" width="4" height="4" fill="#963535"/>
<rect x="72" y="108" width="4" height="4" fill="#a53938"/>
<rect x="76" y="108" width="4" height="4" fill="#963535"/>
<rect x="80" y="108" width="4" height="4" fill="#752c2f"/>
<rect x="84" y="108" width="4" height="4" fill="#752c2f"/>
<rect x="88" y="108" width="4" height="4" fill="#752c2f"/>
<rect x="92" y="108" width="4" height="4" fill="#562127"/>
<rect x="96" y="108" width="4" height="4" fill="#863032"/>
<rect x="100" y="108" width="4" height="4" fill="#863032"/>
<rect x="104" y="108" width="4" height="4" fill="#863032"/>
<rect x="108" y="108" width="4" height="4" fill="#863032"/>
<rect x="112" y="108" width="4" height="4" fill="#863032"/>
<rect x="116" y="108" width="4" height="4" fill="#471c23"/>
<rect x="120" y="108" width="4" height="4" fill="#471c23"/>
<rect x="124" y="108" width="4" height="4" fill="#471c23"/>
<rect x="128" y="108" width="4" height="4" fill="#351b21"/>
<rect x="16" y="112" width="4" height="4" fill="#1f1b25"/>
<rect x="20" y="112" width="4" height="4" fill="#351b21"/>
<rect x="24" y="112" width="4" height="4" fill="#562127"/>
<rect x="28" y="112" width="4" height="4" fill="#863032"/>
<rect x="32" y="112" width="4" height="4" fill="#a53938"/>
<rect x="36" y="112" width="4" height="4" fill="#963535"/>
<rect x="40" y="112" width="4" height="4" fill="#963535"/>
<rect x="44" y="112" width="4" height="4" fill="#a53938"/>
<rect x="48" y="112" width="4" height="4" fill="#863032"/>
<rect x="52" y="112" width="4" height="4" fill="#471c23"/>
<rect x="56" y="112" width="4" height="4" fill="#351b21"/>
<rect x="60" y="112" width="4" height="4" fill="#471c23"/>
<rect x="64" y="112" width="4" height="4" fill="#562127"/>
<rect x="68" y="112" width="4" height="4" fill="#471c23"/>
<rect x="72" y="112" width="4" height="4" fill="#351b21"/>
<rect x="76" y="112" width="4" height="4" fill="#752c2f"/>
<rect x="80" y="112" width="4" height="4" fill="#752c2f"/>
<rect x="84" y="112" width="4" height="4" fill="#562127"/>
<rect x="88" y="112" width="4" height="4" fill="#351b21"/>
<rect x="96" y="112" width="4" height="4" fill="#351b21"/>
<rect x="100" y="112" width="4" height="4" fill="#351b21"/>
<rect x="104" y="112" width="4" height="4" fill="#562127"/>
<rect x="108" y="112" width="4" height="4" fill="#752c2f"/>
<rect x="112" y="112" width="4" height="4" fill="#752c2f"/>
<rect x="116" y="112" width="4" height="4" fill="#471c23"/>
<rect x="120" y="112" width="4" height="4" fill="#562127"/>
<rect x="124" y="112" width="4" height="4" fill="#471c23"/>
<rect x="128" y="112" width="4" height="4" fill="#471c23"/>
<rect x="16" y="116" width="4" height="4" fill="#1f1b25"/>
<rect x="24" y="116" width="4" height="4" fill="#471c23"/>
<rect x="28" y="116" width="4" height="4" fill="#66252a"/>
<rect x="32" y="116" width="4" height="4" fill="#863032"/>
<rect x="36" y="116" width="4" height="4" fill="#863032"/>
<rect x="40" y="116" width="4" height="4" fill="#562127"/>
<rect x="44" y="116" width="4" height="4" fill="#351b21"/>
<rect x="48" y="116" width="4" height="4" fill="#351b21"/>
<rect x="52" y="116" width="4" height="4" fill="#351b21"/>
<rect x="108" y="116" width="4" height="4" fill="#1f1b25"/>
<rect x="112" y="116" width="4" height="4" fill="#351b21"/>
<rect x="116" y="116" width="4" height="4" fill="#562127"/>
<rect x="120" y="116" width="4" height="4" fill="#471c23"/>
<rect x="124" y="116" width="4" height="4" fill="#562127"/>
<rect x="128" y="116" width="4" height="4" fill="#351b21"/>
<rect x="20" y="120" width="4" height="4" fill="#471c23"/>
<rect x="24" y="120" width="4" height="4" fill="#562127"/>
<rect x="28" y="120" width="4" height="4" fill="#351b21"/>
<rect x="32" y="120" width="4" height="4" fill="#471c23"/>
<rect x="56" y="120" width="4" height="4" fill="#9c5a45"/>
<rect x="120" y="120" width="4" height="4" fill="#351b21"/>
<rect x="124" y="120" width="4" height="4" fill="#1f1b25"/>
<rect x="24" y="124" width="4" height="4" fill="#452e2b"/>
<rect x="28" y="124" width="4" height="4" fill="#1f1b25"/>
<rect x="32" y="124" width="4" height="4" fill="#1f1b25"/>
<rect x="36" y="124" width="4" height="4" fill="#1f1b25"/>
<rect x="40" y="124" width="4" height="4" fill="#471c23"/>
<rect x="52" y="124" width="4" height="4" fill="#752c2f"/>
<rect x="56" y="124" width="4" height="4" fill="#ce865d"/>
<rect x="64" y="124" width="4" height="4" fill="#452e2b"/>
<rect x="68" y="124" width="4" height="4" fill="#752c2f"/>
<rect x="72" y="124" width="4" height="4" fill="#ce865d"/>
<rect x="76" y="124" width="4" height="4" fill="#ce865d"/>
<rect x="80" y="124" width="4" height="4" fill="#ce865d"/>
<rect x="84" y="124" width="4" height="4" fill="#bd6a4c"/>
<rect x="88" y="124" width="4" height="4" fill="#bf433d"/>
<rect x="92" y="124" width="4" height="4" fill="#a53938"/>
<rect x="96" y="124" width="4" height="4" fill="#963535"/>
<rect x="104" y="124" width="4" height="4" fill="#9c5a45"/>
<rect x="112" y="124" width="4" height="4" fill="#1f1b25"/>
<rect x="36" y="128" width="4" height="4" fill="#1f1b25"/>
<rect x="40" y="128" width="4" height="4" fill="#351b21"/>
<rect x="52" y="128" width="4" height="4" fill="#bd6a4c"/>
<rect x="56" y="128" width="4" height="4" fill="#df9f6d"/>
<rect x="60" y="128" width="4" height="4" fill="#bd6a4c"/>
<rect x="64" y="128" width="4" height="4" fill="#ce865d"/>
<rect x="68" y="128" width="4" height="4" fill="#f1b780"/>
<rect x="72" y="128" width="4" height="4" fill="#f1b780"/>
<rect x="76" y="128" width="4" height="4" fill="#f1b780"/>
<rect x="80" y="128" width="4" height="4" fill="#f1b780"/>
<rect x="84" y="128" width="4" height="4" fill="#f1b780"/>
<rect x="88" y="128" width="4" height="4" fill="#f1b780"/>
<rect x="92" y="128" width="4" height="4" fill="#f1b780"/>
<rect x="96" y="128" width="4" height="4" fill="#df9f6d"/>
<rect x="100" y="128" width="4" height="4" fill="#bd6a4c"/>
<rect x="104" y="128" width="4" height="4" fill="#9c5a45"/>
<rect x="112" y="128" width="4" height="4" fill="#351b21"/>
<rect x="32" y="132" width="4" height="4" fill="#1f1b25"/>
<rect x="56" y="132" width="4" height="4" fill="#bd6a4c"/>
<rect x="60" y="132" width="4" height="4" fill="#df9f6d"/>
<rect x="64" y="132" width="4" height="4" fill="#f1b780"/>
<rect x="68" y="132" width="4" height="4" fill="#f1b780"/>
<rect x="72" y="132" width="4" height="4" fill="#f1b780"/>
<rect x="76" y="132" width="4" height="4" fill="#f1b780"/>
<rect x="84" y="132" width="4" height="4" fill="#ce865d"/>
<rect x="88" y="132" width="4" height="4" fill="#f1b780"/>
<rect x="92" y="132" width="4" height="4" fill="#df9f6d"/>
<rect x="96" y="132" width="4" height="4" fill="#ce865d"/>
<rect x="100" y="132" width="4" height="4" fill="#bd6a4c"/>
<rect x="104" y="132" width="4" height="4" fill="#9c5a45"/>
<rect x="36" y="136" width="4" height="4" fill="#9c5a45"/>
<rect x="40" y="136" width="4" height="4" fill="#bd6a4c"/>
<rect x="44" y="136" width="4" height="4" fill="#9c5a45"/>
<rect x="48" y="136" width="4" height="4" fill="#752c2f"/>
<rect x="60" y="136" width="4" height="4" fill="#9c5a45"/>
<rect x="64" y="136" width="4" height="4" fill="#ce865d"/>
<rect x="68" y="136" width="4" height="4" fill="#df9f6d"/>
<rect x="72" y="136" width="4" height="4" fill="#f1b780"/>
<rect x="76" y="136" width="4" height="4" fill="#f1b780"/>
<rect x="80" y="136" width="4" height="4" fill="#f1b780"/>
<rect x="92" y="136" width="4" height="4" fill="#df9f6d"/>
<rect x="96" y="136" width="4" height="4" fill="#df9f6d"/>
<rect x="28" y="140" width="4" height="4" fill="#ce865d"/>
<rect x="32" y="140" width="4" height="4" fill="#df9f6d"/>
<rect x="36" y="140" width="4" height="4" fill="#ce865d"/>
<rect x="40" y="140" width="4" height="4" fill="#bd6a4c"/>
<rect x="44" y="140" width="4" height="4" fill="#b23e3b"/>
<rect x="48" y="140" width="4" height="4" fill="#963535"/>
<rect x="52" y="140" width="4" height="4" fill="#752c2f"/>
<rect x="72" y="140" width="4" height="4" fill="#bd6a4c"/>
<rect x="76" y="140" width="4" height="4" fill="#df9f6d"/>
<rect x="80" y="140" width="4" height="4" fill="#ce865d"/>
<rect x="84" y="140" width="4" height="4" fill="#ce865d"/>
<rect x="88" y="140" width="4" height="4" fill="#ce865d"/>
<rect x="92" y="140" width="4" height="4" fill="#ce865d"/>
<rect x="28" y="144" width="4" height="4" fill="#f1b780"/>
<rect x="32" y="144" width="4" height="4" fill="#f1b780"/>
<rect x="36" y="144" width="4" height="4" fill="#ce865d"/>
<rect x="40" y="144" width="4" height="4" fill="#963535"/>
<rect x="48" y="144" width="4" height="4" fill="#752c2f"/>
<rect x="52" y="144" width="4" height="4" fill="#752c2f"/>
<rect x="56" y="144" width="4" height="4" fill="#1d2a3c"/>
<rect x="64" y="144" width="4" height="4" fill="#263c52"/>
<rect x="100" y="144" width="4" height="4" fill="#9c5a45"/>
<rect x="104" y="144" width="4" height="4" fill="#963535"/>
<rect x="108" y="144" width="4" height="4" fill="#9c5a45"/>
<rect x="28" y="148" width="4" height="4" fill="#df9f6d"/>
<rect x="32" y="148" width="4" height="4" fill="#f1b780"/>
<rect x="36" y="148" width="4" height="4" fill="#df9f6d"/>
<rect x="40" y="148" width="4" height="4" fill="#bd6a4c"/>
<rect x="48" y="148" width="4" height="4" fill="#351b21"/>
<rect x="52" y="148" width="4" height="4" fill="#452e2b"/>
<rect x="56" y="148" width="4" height="4" fill="#263c52"/>
<rect x="64" y="148" width="4" height="4" fill="#754b3d"/>
<rect x="76" y="148" width="4" height="4" fill="#9c5a45"/>
<rect x="92" y="148" width="4" height="4" fill="#752c2f"/>
<rect x="96" y="148" width="4" height="4" fill="#863032"/>
<rect x="100" y="148" width="4" height="4" fill="#a53938"/>
<rect x="104" y="148" width="4" height="4" fill="#ce865d"/>
<rect x="108" y="148" width="4" height="4" fill="#ce865d"/>
<rect x="28" y="152" width="4" height="4" fill="#bd6a4c"/>
<rect x="32" y="152" width="4" height="4" fill="#df9f6d"/>
<rect x="36" y="152" width="4" height="4" fill="#df9f6d"/>
<rect x="40" y="152" width="4" height="4" fill="#ce865d"/>
<rect x="48" y="152" width="4" height="4" fill="#1d2a3c"/>
<rect x="52" y="152" width="4" height="4" fill="#1d2a3c"/>
<rect x="56" y="152" width="4" height="4" fill="#263c52"/>
<rect x="64" y="152" width="4" height="4" fill="#ce865d"/>
<rect x="72" y="152" width="4" height="4" fill="#263c52"/>
<rect x="76" y="152" width="4" height="4" fill="#1d2a3c"/>
<rect x="80" y="152" width="4" height="4" fill="#1d2a3c"/>
<rect x="92" y="152" width="4" height="4" fill="#562127"/>
<rect x="96" y="152" width="4" height="4" fill="#963535"/>
<rect x="100" y="152" width="4" height="4" fill="#bd6a4c"/>
<rect x="104" y="152" width="4" height="4" fill="#ce865d"/>
<rect x="108" y="152" width="4" height="4" fill="#bd6a4c"/>
<rect x="32" y="156" width="4" height="4" fill="#df9f6d"/>
<rect x="36" y="156" width="4" height="4" fill="#ce865d"/>
<rect x="40" y="156" width="4" height="4" fill="#963535"/>
<rect x="48" y="156" width="4" height="4" fill="#1d2a3c"/>
<rect x="52" y="156" width="4" height="4" fill="#263c52"/>
<rect x="56" y="156" width="4" height="4" fill="#32516c"/>
<rect x="60" y="156" width="4" height="4" fill="#32516c"/>
<rect x="64" y="156" width="4" height="4" fill="#263c52"/>
<rect x="68" y="156" width="4" height="4" fill="#1d2a3c"/>
<rect x="80" y="156" width="4" height="4" fill="#1d2a3c"/>
<rect x="100" y="156" width="4" height="4" fill="#9c5a45"/>
<rect x="104" y="156" width="4" height="4" fill="#9c5a45"/>
<rect x="44" y="160" width="4" height="4" fill="#1d2a3c"/>
<rect x="48" y="160" width="4" height="4" fill="#1d2a3c"/>
<rect x="52" y="160" width="4" height="4" fill="#263c52"/>
<rect x="56" y="160" width="4" height="4" fill="#32516c"/>
<rect x="60" y="160" width="4" height="4" fill="#32516c"/>
<rect x="64" y="160" width="4" height="4" fill="#32516c"/>
<rect x="68" y="160" width="4" height="4" fill="#32516c"/>
<rect x="72" y="160" width="4" height="4" fill="#32516c"/>
<rect x="76" y="160" width="4" height="4" fill="#263c52"/>
<rect x="80" y="160" width="4" height="4" fill="#1d2a3c"/>
<rect x="40" y="164" width="4" height="4" fill="#1d2a3c"/>
<rect x="44" y="164" width="4" height="4" fill="#1d2a3c"/>
<rect x="48" y="164" width="4" height="4" fill="#1d2a3c"/>
<rect x="52" y="164" width="4" height="4" fill="#1d2a3c"/>
<rect x="56" y="164" width="4" height="4" fill="#263c52"/>
<rect x="60" y="164" width="4" height="4" fill="#32516c"/>
<rect x="64" y="164" width="4" height="4" fill="#32516c"/>
<rect x="68" y="164" width="4" height="4" fill="#32516c"/>
<rect x="72" y="164" width="4" height="4" fill="#263c52"/>
<rect x="76" y="164" width="4" height="4" fill="#32516c"/>
<rect x="80" y="164" width="4" height="4" fill="#263c52"/>
<rect x="28" y="168" width="4" height="4" fill="#452e2b"/>
<rect x="32" y="168" width="4" height="4" fill="#1f1b25"/>
<rect x="36" y="168" width="4" height="4" fill="#1d2a3c"/>
<rect x="40" y="168" width="4" height="4" fill="#263c52"/>
<rect x="44" y="168" width="4" height="4" fill="#263c52"/>
<rect x="48" y="168" width="4" height="4" fill="#1d2a3c"/>
<rect x="52" y="168" width="4" height="4" fill="#1d2a3c"/>
<rect x="56" y="168" width="4" height="4" fill="#1d2a3c"/>
<rect x="60" y="168" width="4" height="4" fill="#263c52"/>
<rect x="64" y="168" width="4" height="4" fill="#263c52"/>
<rect x="68" y="168" width="4" height="4" fill="#263c52"/>
<rect x="72" y="168" width="4" height="4" fill="#1d2a3c"/>
<rect x="76" y="168" width="4" height="4" fill="#263c52"/>
<rect x="80" y="168" width="4" height="4" fill="#263c52"/>
<rect x="84" y="168" width="4" height="4" fill="#1d2a3c"/>
<rect x="28" y="172" width="4" height="4" fill="#752c2f"/>
<rect x="32" y="172" width="4" height="4" fill="#351b21"/>
<rect x="36" y="172" width="4" height="4" fill="#1d2a3c"/>
<rect x="40" y="172" width="4" height="4" fill="#1d2a3c"/>
<rect x="44" y="172" width="4" height="4" fill="#263c52"/>
<rect x="48" y="172" width="4" height="4" fill="#1d2a3c"/>
<rect x="52" y="172" width="4" height="4" fill="#1d2a3c"/>
<rect x="68" y="172" width="4" height="4" fill="#1f1b25"/>
<rect x="72" y="172" width="4" height="4" fill="#1d2a3c"/>
<rect x="76" y="172" width="4" height="4" fill="#1d2a3c"/>
<rect x="80" y="172" width="4" height="4" fill="#1d2a3c"/>
<rect x="84" y="172" width="4" height="4" fill="#1f1b25"/>
<rect x="88" y="172" width="4" height="4" fill="#351b21"/>
<rect x="92" y="172" width="4" height="4" fill="#752c2f"/>
<rect x="28" y="176" width="4" height="4" fill="#863032"/>
<rect x="32" y="176" width="4" height="4" fill="#471c23"/>
<rect x="36" y="176" width="4" height="4" fill="#1f1b25"/>
<rect x="40" y="176" width="4" height="4" fill="#1d2a3c"/>
<rect x="44" y="176" width="4" height="4" fill="#1d2a3c"/>
<rect x="48" y="176" width="4" height="4" fill="#1d2a3c"/>
<rect x="72" y="176" width="4" height="4" fill="#1d2a3c"/>
<rect x="76" y="176" width="4" height="4" fill="#1d2a3c"/>
<rect x="80" y="176" width="4" height="4" fill="#351b21"/>
<rect x="84" y="176" width="4" height="4" fill="#5b3b33"/>
<rect x="88" y="176" width="4" height="4" fill="#66252a"/>
<rect x="92" y="176" width="4" height="4" fill="#5b3b33"/>
<rect x="28" y="180" width="4" height="4" fill="#752c2f"/>
<rect x="32" y="180" width="4" height="4" fill="#471c23"/>
<rect x="76" y="180" width="4" height="4" fill="#1f1b25"/>
<rect x="80" y="180" width="4" height="4" fill="#471c23"/>
<rect x="84" y="180" width="4" height="4" fill="#471c23"/>
<rect x="88" y="180" width="4" height="4" fill="#351b21"/>
<rect x="28" y="184" width="4" height="4" fill="#452e2b"/>
<rect x="32" y="184" width="4" height="4" fill="#351b21"/>
<rect x="80" y="184" width="4" height="4" fill="#351b21"/>
</svg>
