<svg xmlns="http://www.w3.org/2000/svg" width="80" height="96">
  <!-- Lombada -->
  <rect x="0" y="0" width="14" height="96" fill="#5a3a1a"/>
  <rect x="4" y="4" width="6" height="8" fill="#3a2010"/>
  <rect x="4" y="20" width="6" height="8" fill="#3a2010"/>
  <rect x="4" y="36" width="6" height="8" fill="#3a2010"/>
  <rect x="4" y="52" width="6" height="8" fill="#3a2010"/>
  <rect x="4" y="68" width="6" height="8" fill="#3a2010"/>
  <rect x="4" y="84" width="6" height="8" fill="#3a2010"/>
  <!-- Capa -->
  <rect x="10" y="0" width="70" height="96" fill="#7a5230"/>
  <!-- Páginas visíveis (lateral direita) -->
  <rect x="13" y="3" width="64" height="90" fill="#f0e8d0"/>
  <!-- Linhas de escrita -->
  <rect x="18" y="14" width="50" height="2" fill="#c0b090"/>
  <rect x="18" y="22" width="50" height="2" fill="#c0b090"/>
  <rect x="18" y="30" width="50" height="2" fill="#c0b090"/>
  <rect x="18" y="38" width="44" height="2" fill="#c0b090"/>
  <rect x="18" y="46" width="50" height="2" fill="#c0b090"/>
  <rect x="18" y="54" width="36" height="2" fill="#c0b090"/>
  <rect x="18" y="62" width="50" height="2" fill="#c0b090"/>
  <rect x="18" y="70" width="28" height="2" fill="#c0b090"/>
  <!-- Mancha de água (memória apagada) -->
  <rect x="26" y="28" width="22" height="18" fill="#b0c8d8" opacity="0.35"/>
  <!-- Fecho de couro -->
  <rect x="72" y="40" width="8" height="14" fill="#c4a060"/>
  <rect x="73" y="42" width="6" height="10" fill="#a08040"/>
  <rect x="74" y="44" width="4" height="6" fill="#906830"/>
</svg>
