<svg xmlns="http://www.w3.org/2000/svg" width="64" height="96">
  <!-- Corrente (pontos dourados) -->
  <rect x="28" y="4"  width="4" height="4" fill="#c8a830"/>
  <rect x="26" y="11" width="4" height="4" fill="#c8a830"/>
  <rect x="28" y="18" width="4" height="4" fill="#c8a830"/>
  <rect x="26" y="25" width="4" height="4" fill="#c8a830"/>
  <rect x="28" y="32" width="4" height="4" fill="#c8a830"/>
  <!-- Pingente - morango -->
  <!-- Corpo morango -->
  <rect x="22" y="38" width="20" height="20" fill="#d02020"/>
  <rect x="20" y="44" width="24" height="12" fill="#d02020"/>
  <rect x="24" y="36" width="16" height="6" fill="#e03030"/>
  <!-- Sementes brancas -->
  <rect x="24" y="40" width="2" height="2" fill="#f8e8e8"/>
  <rect x="30" y="38" width="2" height="2" fill="#f8e8e8"/>
  <rect x="36" y="40" width="2" height="2" fill="#f8e8e8"/>
  <rect x="26" y="46" width="2" height="2" fill="#f8e8e8"/>
  <rect x="33" y="46" width="2" height="2" fill="#f8e8e8"/>
  <rect x="28" y="52" width="2" height="2" fill="#f8e8e8"/>
  <!-- Folhas verdes no topo -->
  <rect x="22" y="32" width="8" height="8" fill="#208030"/>
  <rect x="34" y="32" width="8" height="8" fill="#208030"/>
  <rect x="28" y="29" width="8" height="6" fill="#30a045"/>
  <!-- Brilho -->
  <rect x="24" y="40" width="4" height="4" fill="#ff5050" opacity="0.5"/>
</svg>
