<svg width="640" height="48" viewBox="0 0 640 48" xmlns="http://www.w3.org/2000/svg" shape-rendering="crispEdges">
  <rect x="0" y="0" width="640" height="5" fill="#72ccc8"/>
  <rect x="0" y="4" width="640" height="4" fill="#68c4c0"/>
  <rect x="0" y="8" width="640" height="4" fill="#60bcb8"/>
  <rect x="0" y="12" width="640" height="4" fill="#58b4b0"/>
  <rect x="0" y="16" width="640" height="4" fill="#50acaa"/>
  <rect x="0" y="20" width="640" height="4" fill="#48a4a0"/>
  <rect x="0" y="24" width="640" height="4" fill="#409898"/>
  <rect x="0" y="28" width="640" height="4" fill="#389090"/>
  <rect x="0" y="32" width="640" height="4" fill="#308888"/>
  <rect x="0" y="36" width="640" height="12" fill="#287878"/>
  <!-- Wave lines -->
  <rect x="0" y="2" width="640" height="1" fill="#90dcd8" opacity="0.5"/>
  <rect x="0" y="8" width="640" height="1" fill="#80d0cc" opacity="0.4"/>
  <rect x="0" y="14" width="640" height="1" fill="#70c4c0" opacity="0.35"/>
  <rect x="0" y="20" width="640" height="1" fill="#60b8b4" opacity="0.3"/>
  <rect x="0" y="26" width="640" height="1" fill="#50a8a4" opacity="0.3"/>
  <!-- Shimmer dots -->
  <rect x="80" y="4" width="12" height="2" fill="#c0f0ee" opacity="0.4"/>
  <rect x="200" y="10" width="16" height="2" fill="#b0e8e4" opacity="0.35"/>
  <rect x="350" y="6" width="20" height="2" fill="#c0f0ee" opacity="0.4"/>
  <rect x="480" y="12" width="14" height="2" fill="#b0e8e4" opacity="0.35"/>
  <rect x="580" y="5" width="10" height="2" fill="#c0f0ee" opacity="0.4"/>
  <!-- Sun reflection column -->
  <rect x="270" y="0" width="100" height="20" fill="#fdf8c0" opacity="0.15"/>
  <rect x="285" y="0" width="70" height="12" fill="#fff8b0" opacity="0.12"/>
</svg>
