<svg width="640" height="110" viewBox="0 0 640 110" xmlns="http://www.w3.org/2000/svg" shape-rendering="crispEdges">
  <rect x="0" y="0" width="640" height="18" fill="#7a5a90"/>
  <rect x="0" y="16" width="640" height="8" fill="#8b6aa0"/>
  <rect x="0" y="22" width="640" height="10" fill="#9a78aa"/>
  <rect x="0" y="30" width="640" height="10" fill="#b08ab8"/>
  <rect x="0" y="38" width="640" height="10" fill="#c498be"/>
  <rect x="0" y="46" width="640" height="10" fill="#d8a8c8"/>
  <rect x="0" y="54" width="640" height="10" fill="#e8b8c4"/>
  <rect x="0" y="62" width="640" height="10" fill="#f0c8b0"/>
  <rect x="0" y="70" width="640" height="10" fill="#f4d898"/>
  <rect x="0" y="78" width="640" height="10" fill="#f8e4a0"/>
  <rect x="0" y="86" width="640" height="14" fill="#faf0b0"/>
  <rect x="0" y="98" width="640" height="12" fill="#fdf8c0"/>
  <!-- Sun -->
  <rect x="300" y="88" width="40" height="14" fill="#fffce8"/>
  <rect x="296" y="90" width="48" height="10" fill="#fff8d0" opacity="0.8"/>
  <rect x="294" y="92" width="52" height="8" fill="#fff0b0" opacity="0.6"/>
  <!-- Clouds layer 1 - large purple -->
  <rect x="0" y="2" width="220" height="38" fill="#9876a8" opacity="0.85"/>
  <rect x="0" y="0" width="120" height="20" fill="#aa88b8"/>
  <rect x="10" y="-2" width="80" height="12" fill="#b898c4"/>
  <rect x="20" y="-4" width="60" height="10" fill="#c4a8cc"/>
  <rect x="35" y="20" width="140" height="25" fill="#a880b4" opacity="0.75"/>
  <rect x="45" y="15" width="100" height="15" fill="#ba90c0"/>
  <rect x="55" y="10" width="80" height="12" fill="#c49eca"/>
  <!-- Cloud highlights -->
  <rect x="10" y="2" width="70" height="8" fill="#e8d4ec" opacity="0.4"/>
  <rect x="45" y="17" width="70" height="7" fill="#e4d0e8" opacity="0.35"/>
  <!-- Cloud base glow -->
  <rect x="0" y="32" width="220" height="10" fill="#f0b0a0" opacity="0.45"/>
  <!-- Center big cloud -->
  <rect x="180" y="0" width="280" height="42" fill="#c0a0cc" opacity="0.8"/>
  <rect x="200" y="-4" width="240" height="24" fill="#c8a8d4"/>
  <rect x="220" y="-8" width="200" height="16" fill="#ceb0da"/>
  <rect x="240" y="-12" width="160" height="14" fill="#d4b8de"/>
  <rect x="260" y="-14" width="120" height="10" fill="#dac0e4"/>
  <rect x="280" y="-16" width="80" height="8" fill="#dfc4e8"/>
  <!-- Center cloud top highlights -->
  <rect x="210" y="-2" width="130" height="10" fill="#f0e4f4" opacity="0.45"/>
  <rect x="240" y="-10" width="100" height="8" fill="#f8eef8" opacity="0.35"/>
  <!-- Center cloud bottom sunset glow -->
  <rect x="200" y="34" width="240" height="10" fill="#f4b8a4" opacity="0.45"/>
  <rect x="220" y="38" width="200" height="8" fill="#f8c8a8" opacity="0.4"/>
  <!-- Right cloud -->
  <rect x="420" y="4" width="220" height="36" fill="#9876a8" opacity="0.8"/>
  <rect x="500" y="0" width="140" height="20" fill="#aa88b8"/>
  <rect x="520" y="-2" width="100" height="14" fill="#b898c4"/>
  <rect x="540" y="-4" width="80" height="10" fill="#c4a8cc"/>
  <rect x="460" y="18" width="120" height="24" fill="#a880b4" opacity="0.7"/>
  <rect x="468" y="14" width="100" height="14" fill="#ba90c0"/>
  <rect x="500" y="3" width="80" height="10" fill="#e4d0e8" opacity="0.4"/>
  <!-- Right cloud base glow -->
  <rect x="420" y="32" width="220" height="10" fill="#f0b0a0" opacity="0.45"/>
</svg>
