<svg width="80" height="48" viewBox="0 0 80 48" xmlns="http://www.w3.org/2000/svg" shape-rendering="crispEdges">
<rect x="28" y="16" width="4" height="4" fill="#d07840"/>
<rect x="32" y="16" width="4" height="4" fill="#d07840"/>
<rect x="36" y="16" width="4" height="4" fill="#d07840"/>
<rect x="40" y="16" width="4" height="4" fill="#d07840"/>
<rect x="44" y="16" width="4" height="4" fill="#d07840"/>
<rect x="48" y="16" width="4" height="4" fill="#d07840"/>
<rect x="24" y="20" width="4" height="4" fill="#d07840"/>
<rect x="28" y="20" width="4" height="4" fill="#d07840"/>
<rect x="32" y="20" width="4" height="4" fill="#d07840"/>
<rect x="36" y="20" width="4" height="4" fill="#d07840"/>
<rect x="40" y="20" width="4" height="4" fill="#d07840"/>
<rect x="44" y="20" width="4" height="4" fill="#d07840"/>
<rect x="48" y="20" width="4" height="4" fill="#d07840"/>
<rect x="52" y="20" width="4" height="4" fill="#d07840"/>
<rect x="20" y="24" width="4" height="4" fill="#d07840"/>
<rect x="24" y="24" width="4" height="4" fill="#d07840"/>
<rect x="28" y="24" width="4" height="4" fill="#d07840"/>
<rect x="32" y="24" width="4" height="4" fill="#d07840"/>
<rect x="36" y="24" width="4" height="4" fill="#d07840"/>
<rect x="40" y="24" width="4" height="4" fill="#d07840"/>
<rect x="44" y="24" width="4" height="4" fill="#d07840"/>
<rect x="48" y="24" width="4" height="4" fill="#d07840"/>
<rect x="52" y="24" width="4" height="4" fill="#d07840"/>
<rect x="56" y="24" width="4" height="4" fill="#d07840"/>
<rect x="20" y="28" width="4" height="4" fill="#d07840"/>
<rect x="24" y="28" width="4" height="4" fill="#d07840"/>
<rect x="28" y="28" width="4" height="4" fill="#d07840"/>
<rect x="32" y="28" width="4" height="4" fill="#d07840"/>
<rect x="36" y="28" width="4" height="4" fill="#d07840"/>
<rect x="40" y="28" width="4" height="4" fill="#d07840"/>
<rect x="44" y="28" width="4" height="4" fill="#d07840"/>
<rect x="48" y="28" width="4" height="4" fill="#d07840"/>
<rect x="52" y="28" width="4" height="4" fill="#d07840"/>
<rect x="56" y="28" width="4" height="4" fill="#d07840"/>
<rect x="24" y="32" width="4" height="4" fill="#d07840"/>
<rect x="28" y="32" width="4" height="4" fill="#d07840"/>
<rect x="32" y="32" width="4" height="4" fill="#d07840"/>
<rect x="36" y="32" width="4" height="4" fill="#d07840"/>
<rect x="40" y="32" width="4" height="4" fill="#d07840"/>
<rect x="44" y="32" width="4" height="4" fill="#d07840"/>
<rect x="48" y="32" width="4" height="4" fill="#d07840"/>
<rect x="52" y="32" width="4" height="4" fill="#d07840"/>
<rect x="28" y="36" width="4" height="4" fill="#d07840"/>
<rect x="32" y="36" width="4" height="4" fill="#d07840"/>
<rect x="36" y="36" width="4" height="4" fill="#d07840"/>
<rect x="40" y="36" width="4" height="4" fill="#d07840"/>
<rect x="44" y="36" width="4" height="4" fill="#d07840"/>
<rect x="48" y="36" width="4" height="4" fill="#d07840"/>
<rect x="28" y="20" width="4" height="4" fill="#e09858"/>
<rect x="32" y="20" width="4" height="4" fill="#e09858"/>
<rect x="36" y="20" width="4" height="4" fill="#e09858"/>
<rect x="40" y="20" width="4" height="4" fill="#e09858"/>
<rect x="28" y="24" width="4" height="4" fill="#e09858"/>
<rect x="32" y="24" width="4" height="4" fill="#e09858"/>
<rect x="36" y="24" width="4" height="4" fill="#a85830"/>
<rect x="40" y="28" width="4" height="4" fill="#a85830"/>
<rect x="32" y="32" width="4" height="4" fill="#a85830"/>
<rect x="0" y="24" width="4" height="4" fill="#a85830"/>
<rect x="4" y="24" width="4" height="4" fill="#a85830"/>
<rect x="8" y="24" width="4" height="4" fill="#a85830"/>
<rect x="12" y="24" width="4" height="4" fill="#a85830"/>
<rect x="4" y="20" width="4" height="4" fill="#a85830"/>
<rect x="8" y="20" width="4" height="4" fill="#a85830"/>
<rect x="0" y="28" width="4" height="4" fill="#a85830"/>
<rect x="4" y="28" width="4" height="4" fill="#a85830"/>
<rect x="8" y="28" width="4" height="4" fill="#a85830"/>
<rect x="4" y="20" width="4" height="4" fill="#d07840"/>
<rect x="8" y="20" width="4" height="4" fill="#d07840"/>
<rect x="68" y="24" width="4" height="4" fill="#a85830"/>
<rect x="72" y="24" width="4" height="4" fill="#a85830"/>
<rect x="76" y="24" width="4" height="4" fill="#a85830"/>
<rect x="64" y="24" width="4" height="4" fill="#a85830"/>
<rect x="68" y="20" width="4" height="4" fill="#a85830"/>
<rect x="72" y="20" width="4" height="4" fill="#a85830"/>
<rect x="68" y="28" width="4" height="4" fill="#a85830"/>
<rect x="72" y="28" width="4" height="4" fill="#a85830"/>
<rect x="76" y="28" width="4" height="4" fill="#a85830"/>
<rect x="68" y="20" width="4" height="4" fill="#d07840"/>
<rect x="72" y="20" width="4" height="4" fill="#d07840"/>
<rect x="32" y="8" width="4" height="4" fill="#a85830"/>
<rect x="32" y="12" width="4" height="4" fill="#a85830"/>
<rect x="44" y="8" width="4" height="4" fill="#a85830"/>
<rect x="44" y="12" width="4" height="4" fill="#a85830"/>
<rect x="28" y="4" width="4" height="4" fill="#100808"/>
<rect x="32" y="4" width="4" height="4" fill="#100808"/>
<rect x="36" y="4" width="4" height="4" fill="#100808"/>
<rect x="40" y="4" width="4" height="4" fill="#100808"/>
<rect x="44" y="4" width="4" height="4" fill="#100808"/>
<rect x="48" y="4" width="4" height="4" fill="#100808"/>
<rect x="28" y="8" width="4" height="4" fill="#100808"/>
<rect x="36" y="8" width="4" height="4" fill="#100808"/>
<rect x="40" y="8" width="4" height="4" fill="#100808"/>
<rect x="48" y="8" width="4" height="4" fill="#100808"/>
<rect x="32" y="4" width="4" height="4" fill="#f8f8f8"/>
<rect x="44" y="4" width="4" height="4" fill="#f8f8f8"/>
<rect x="12" y="32" width="4" height="4" fill="#a85830"/>
<rect x="16" y="32" width="4" height="4" fill="#a85830"/>
<rect x="16" y="36" width="4" height="4" fill="#a85830"/>
<rect x="60" y="32" width="4" height="4" fill="#a85830"/>
<rect x="64" y="32" width="4" height="4" fill="#a85830"/>
<rect x="64" y="36" width="4" height="4" fill="#a85830"/>
<rect x="20" y="20" width="4" height="4" fill="#14141e"/>
<rect x="24" y="16" width="4" height="4" fill="#14141e"/>
<rect x="28" y="12" width="4" height="4" fill="#14141e"/>
<rect x="48" y="12" width="4" height="4" fill="#14141e"/>
<rect x="52" y="16" width="4" height="4" fill="#14141e"/>
<rect x="56" y="20" width="4" height="4" fill="#14141e"/>
<rect x="60" y="24" width="4" height="4" fill="#14141e"/>
<rect x="60" y="32" width="4" height="4" fill="#14141e"/>
<rect x="56" y="36" width="4" height="4" fill="#14141e"/>
<rect x="24" y="36" width="4" height="4" fill="#14141e"/>
<rect x="20" y="32" width="4" height="4" fill="#14141e"/>
<rect x="16" y="24" width="4" height="4" fill="#14141e"/>
</svg>