<svg width="60" height="24" viewBox="0 0 60 24" xmlns="http://www.w3.org/2000/svg" shape-rendering="crispEdges">
<rect x="0" y="4" width="4" height="4" fill="#7a5828"/>
<rect x="0" y="8" width="4" height="4" fill="#7a5828"/>
<rect x="0" y="12" width="4" height="4" fill="#7a5828"/>
<rect x="0" y="16" width="4" height="4" fill="#7a5828"/>
<rect x="0" y="8" width="4" height="4" fill="#5a3c18"/>
<rect x="0" y="12" width="4" height="4" fill="#5a3c18"/>
<rect x="4" y="4" width="4" height="4" fill="#5a3c18"/>
<rect x="4" y="8" width="4" height="4" fill="#7a5828"/>
<rect x="4" y="12" width="4" height="4" fill="#7a5828"/>
<rect x="4" y="16" width="4" height="4" fill="#5a3c18"/>
<rect x="8" y="0" width="4" height="4" fill="#14141e"/>
<rect x="8" y="20" width="4" height="4" fill="#14141e"/>
<rect x="8" y="4" width="4" height="4" fill="#a07840"/>
<rect x="8" y="8" width="4" height="4" fill="#a07840"/>
<rect x="8" y="12" width="4" height="4" fill="#7a5828"/>
<rect x="8" y="16" width="4" height="4" fill="#5a3c18"/>
<rect x="12" y="0" width="4" height="4" fill="#14141e"/>
<rect x="12" y="20" width="4" height="4" fill="#14141e"/>
<rect x="12" y="4" width="4" height="4" fill="#7a5828"/>
<rect x="12" y="8" width="4" height="4" fill="#a07840"/>
<rect x="12" y="12" width="4" height="4" fill="#7a5828"/>
<rect x="12" y="16" width="4" height="4" fill="#5a3c18"/>
<rect x="16" y="0" width="4" height="4" fill="#14141e"/>
<rect x="16" y="20" width="4" height="4" fill="#14141e"/>
<rect x="16" y="4" width="4" height="4" fill="#a07840"/>
<rect x="16" y="8" width="4" height="4" fill="#c09858"/>
<rect x="16" y="12" width="4" height="4" fill="#7a5828"/>
<rect x="16" y="16" width="4" height="4" fill="#5a3c18"/>
<rect x="20" y="0" width="4" height="4" fill="#14141e"/>
<rect x="20" y="20" width="4" height="4" fill="#14141e"/>
<rect x="20" y="4" width="4" height="4" fill="#a07840"/>
<rect x="20" y="8" width="4" height="4" fill="#a07840"/>
<rect x="20" y="12" width="4" height="4" fill="#7a5828"/>
<rect x="20" y="16" width="4" height="4" fill="#5a3c18"/>
<rect x="24" y="0" width="4" height="4" fill="#14141e"/>
<rect x="24" y="20" width="4" height="4" fill="#14141e"/>
<rect x="24" y="4" width="4" height="4" fill="#7a5828"/>
<rect x="24" y="8" width="4" height="4" fill="#a07840"/>
<rect x="24" y="12" width="4" height="4" fill="#7a5828"/>
<rect x="24" y="16" width="4" height="4" fill="#5a3c18"/>
<rect x="28" y="0" width="4" height="4" fill="#14141e"/>
<rect x="28" y="20" width="4" height="4" fill="#14141e"/>
<rect x="28" y="4" width="4" height="4" fill="#a07840"/>
<rect x="28" y="8" width="4" height="4" fill="#a07840"/>
<rect x="28" y="12" width="4" height="4" fill="#7a5828"/>
<rect x="28" y="16" width="4" height="4" fill="#5a3c18"/>
<rect x="32" y="0" width="4" height="4" fill="#14141e"/>
<rect x="32" y="20" width="4" height="4" fill="#14141e"/>
<rect x="32" y="4" width="4" height="4" fill="#a07840"/>
<rect x="32" y="8" width="4" height="4" fill="#c09858"/>
<rect x="32" y="12" width="4" height="4" fill="#7a5828"/>
<rect x="32" y="16" width="4" height="4" fill="#5a3c18"/>
<rect x="36" y="0" width="4" height="4" fill="#14141e"/>
<rect x="36" y="20" width="4" height="4" fill="#14141e"/>
<rect x="36" y="4" width="4" height="4" fill="#7a5828"/>
<rect x="36" y="8" width="4" height="4" fill="#a07840"/>
<rect x="36" y="12" width="4" height="4" fill="#7a5828"/>
<rect x="36" y="16" width="4" height="4" fill="#5a3c18"/>
<rect x="40" y="0" width="4" height="4" fill="#14141e"/>
<rect x="40" y="20" width="4" height="4" fill="#14141e"/>
<rect x="40" y="4" width="4" height="4" fill="#a07840"/>
<rect x="40" y="8" width="4" height="4" fill="#a07840"/>
<rect x="40" y="12" width="4" height="4" fill="#7a5828"/>
<rect x="40" y="16" width="4" height="4" fill="#5a3c18"/>
<rect x="44" y="0" width="4" height="4" fill="#14141e"/>
<rect x="44" y="20" width="4" height="4" fill="#14141e"/>
<rect x="44" y="4" width="4" height="4" fill="#a07840"/>
<rect x="44" y="8" width="4" height="4" fill="#a07840"/>
<rect x="44" y="12" width="4" height="4" fill="#7a5828"/>
<rect x="44" y="16" width="4" height="4" fill="#5a3c18"/>
<rect x="48" y="0" width="4" height="4" fill="#14141e"/>
<rect x="48" y="20" width="4" height="4" fill="#14141e"/>
<rect x="48" y="4" width="4" height="4" fill="#7a5828"/>
<rect x="48" y="8" width="4" height="4" fill="#c09858"/>
<rect x="48" y="12" width="4" height="4" fill="#7a5828"/>
<rect x="48" y="16" width="4" height="4" fill="#5a3c18"/>
<rect x="52" y="0" width="4" height="4" fill="#14141e"/>
<rect x="52" y="20" width="4" height="4" fill="#14141e"/>
<rect x="52" y="4" width="4" height="4" fill="#a07840"/>
<rect x="52" y="8" width="4" height="4" fill="#a07840"/>
<rect x="52" y="12" width="4" height="4" fill="#7a5828"/>
<rect x="52" y="16" width="4" height="4" fill="#5a3c18"/>
<rect x="16" y="8" width="4" height="4" fill="#7a5828"/>
<rect x="32" y="8" width="4" height="4" fill="#7a5828"/>
<rect x="48" y="8" width="4" height="4" fill="#7a5828"/>
<rect x="20" y="0" width="4" height="4" fill="#507840"/>
<rect x="24" y="0" width="4" height="4" fill="#507840"/>
<rect x="36" y="0" width="4" height="4" fill="#507840"/>
<rect x="40" y="0" width="4" height="4" fill="#507840"/>
<rect x="56" y="4" width="4" height="4" fill="#7a5828"/>
<rect x="56" y="8" width="4" height="4" fill="#7a5828"/>
<rect x="56" y="12" width="4" height="4" fill="#7a5828"/>
<rect x="56" y="16" width="4" height="4" fill="#7a5828"/>
<rect x="56" y="8" width="4" height="4" fill="#5a3c18"/>
<rect x="56" y="12" width="4" height="4" fill="#5a3c18"/>
<rect x="0" y="0" width="4" height="4" fill="#14141e"/>
<rect x="0" y="20" width="4" height="4" fill="#14141e"/>
<rect x="56" y="0" width="4" height="4" fill="#14141e"/>
<rect x="56" y="20" width="4" height="4" fill="#14141e"/>
<rect x="0" y="0" width="4" height="4" fill="#14141e"/>
<rect x="0" y="20" width="4" height="4" fill="#14141e"/>
<rect x="56" y="0" width="4" height="4" fill="#14141e"/>
<rect x="56" y="20" width="4" height="4" fill="#14141e"/>
</svg>