<svg width="96" height="24" viewBox="0 0 96 24" xmlns="http://www.w3.org/2000/svg" shape-rendering="crispEdges">
<rect x="12" y="0" width="4" height="4" fill="#5888a0"/>
<rect x="16" y="0" width="4" height="4" fill="#5888a0"/>
<rect x="20" y="0" width="4" height="4" fill="#5888a0"/>
<rect x="24" y="0" width="4" height="4" fill="#5888a0"/>
<rect x="28" y="0" width="4" height="4" fill="#5888a0"/>
<rect x="32" y="0" width="4" height="4" fill="#5888a0"/>
<rect x="36" y="0" width="4" height="4" fill="#5888a0"/>
<rect x="40" y="0" width="4" height="4" fill="#5888a0"/>
<rect x="44" y="0" width="4" height="4" fill="#5888a0"/>
<rect x="48" y="0" width="4" height="4" fill="#5888a0"/>
<rect x="52" y="0" width="4" height="4" fill="#5888a0"/>
<rect x="56" y="0" width="4" height="4" fill="#5888a0"/>
<rect x="60" y="0" width="4" height="4" fill="#5888a0"/>
<rect x="64" y="0" width="4" height="4" fill="#5888a0"/>
<rect x="68" y="0" width="4" height="4" fill="#5888a0"/>
<rect x="72" y="0" width="4" height="4" fill="#5888a0"/>
<rect x="76" y="0" width="4" height="4" fill="#5888a0"/>
<rect x="80" y="0" width="4" height="4" fill="#5888a0"/>
<rect x="8" y="4" width="4" height="4" fill="#78a8bc"/>
<rect x="12" y="4" width="4" height="4" fill="#78a8bc"/>
<rect x="16" y="4" width="4" height="4" fill="#78a8bc"/>
<rect x="20" y="4" width="4" height="4" fill="#78a8bc"/>
<rect x="24" y="4" width="4" height="4" fill="#78a8bc"/>
<rect x="28" y="4" width="4" height="4" fill="#78a8bc"/>
<rect x="32" y="4" width="4" height="4" fill="#78a8bc"/>
<rect x="36" y="4" width="4" height="4" fill="#78a8bc"/>
<rect x="40" y="4" width="4" height="4" fill="#78a8bc"/>
<rect x="44" y="4" width="4" height="4" fill="#78a8bc"/>
<rect x="48" y="4" width="4" height="4" fill="#78a8bc"/>
<rect x="52" y="4" width="4" height="4" fill="#78a8bc"/>
<rect x="56" y="4" width="4" height="4" fill="#78a8bc"/>
<rect x="60" y="4" width="4" height="4" fill="#78a8bc"/>
<rect x="64" y="4" width="4" height="4" fill="#78a8bc"/>
<rect x="68" y="4" width="4" height="4" fill="#78a8bc"/>
<rect x="72" y="4" width="4" height="4" fill="#78a8bc"/>
<rect x="76" y="4" width="4" height="4" fill="#78a8bc"/>
<rect x="80" y="4" width="4" height="4" fill="#78a8bc"/>
<rect x="84" y="4" width="4" height="4" fill="#78a8bc"/>
<rect x="4" y="8" width="4" height="4" fill="#9cc4d4"/>
<rect x="8" y="8" width="4" height="4" fill="#9cc4d4"/>
<rect x="12" y="8" width="4" height="4" fill="#9cc4d4"/>
<rect x="16" y="8" width="4" height="4" fill="#9cc4d4"/>
<rect x="20" y="8" width="4" height="4" fill="#9cc4d4"/>
<rect x="24" y="8" width="4" height="4" fill="#9cc4d4"/>
<rect x="28" y="8" width="4" height="4" fill="#9cc4d4"/>
<rect x="32" y="8" width="4" height="4" fill="#9cc4d4"/>
<rect x="36" y="8" width="4" height="4" fill="#9cc4d4"/>
<rect x="40" y="8" width="4" height="4" fill="#9cc4d4"/>
<rect x="44" y="8" width="4" height="4" fill="#9cc4d4"/>
<rect x="48" y="8" width="4" height="4" fill="#9cc4d4"/>
<rect x="52" y="8" width="4" height="4" fill="#9cc4d4"/>
<rect x="56" y="8" width="4" height="4" fill="#9cc4d4"/>
<rect x="60" y="8" width="4" height="4" fill="#9cc4d4"/>
<rect x="64" y="8" width="4" height="4" fill="#9cc4d4"/>
<rect x="68" y="8" width="4" height="4" fill="#9cc4d4"/>
<rect x="72" y="8" width="4" height="4" fill="#9cc4d4"/>
<rect x="76" y="8" width="4" height="4" fill="#9cc4d4"/>
<rect x="80" y="8" width="4" height="4" fill="#9cc4d4"/>
<rect x="84" y="8" width="4" height="4" fill="#9cc4d4"/>
<rect x="88" y="8" width="4" height="4" fill="#9cc4d4"/>
<rect x="4" y="12" width="4" height="4" fill="#9cc4d4"/>
<rect x="8" y="12" width="4" height="4" fill="#9cc4d4"/>
<rect x="12" y="12" width="4" height="4" fill="#9cc4d4"/>
<rect x="16" y="12" width="4" height="4" fill="#9cc4d4"/>
<rect x="20" y="12" width="4" height="4" fill="#9cc4d4"/>
<rect x="24" y="12" width="4" height="4" fill="#9cc4d4"/>
<rect x="28" y="12" width="4" height="4" fill="#9cc4d4"/>
<rect x="32" y="12" width="4" height="4" fill="#9cc4d4"/>
<rect x="36" y="12" width="4" height="4" fill="#9cc4d4"/>
<rect x="40" y="12" width="4" height="4" fill="#9cc4d4"/>
<rect x="44" y="12" width="4" height="4" fill="#9cc4d4"/>
<rect x="48" y="12" width="4" height="4" fill="#9cc4d4"/>
<rect x="52" y="12" width="4" height="4" fill="#9cc4d4"/>
<rect x="56" y="12" width="4" height="4" fill="#9cc4d4"/>
<rect x="60" y="12" width="4" height="4" fill="#9cc4d4"/>
<rect x="64" y="12" width="4" height="4" fill="#9cc4d4"/>
<rect x="68" y="12" width="4" height="4" fill="#9cc4d4"/>
<rect x="72" y="12" width="4" height="4" fill="#9cc4d4"/>
<rect x="76" y="12" width="4" height="4" fill="#9cc4d4"/>
<rect x="80" y="12" width="4" height="4" fill="#9cc4d4"/>
<rect x="84" y="12" width="4" height="4" fill="#9cc4d4"/>
<rect x="88" y="12" width="4" height="4" fill="#9cc4d4"/>
<rect x="8" y="16" width="4" height="4" fill="#78a8bc"/>
<rect x="12" y="16" width="4" height="4" fill="#78a8bc"/>
<rect x="16" y="16" width="4" height="4" fill="#78a8bc"/>
<rect x="20" y="16" width="4" height="4" fill="#78a8bc"/>
<rect x="24" y="16" width="4" height="4" fill="#78a8bc"/>
<rect x="28" y="16" width="4" height="4" fill="#78a8bc"/>
<rect x="32" y="16" width="4" height="4" fill="#78a8bc"/>
<rect x="36" y="16" width="4" height="4" fill="#78a8bc"/>
<rect x="40" y="16" width="4" height="4" fill="#78a8bc"/>
<rect x="44" y="16" width="4" height="4" fill="#78a8bc"/>
<rect x="48" y="16" width="4" height="4" fill="#78a8bc"/>
<rect x="52" y="16" width="4" height="4" fill="#78a8bc"/>
<rect x="56" y="16" width="4" height="4" fill="#78a8bc"/>
<rect x="60" y="16" width="4" height="4" fill="#78a8bc"/>
<rect x="64" y="16" width="4" height="4" fill="#78a8bc"/>
<rect x="68" y="16" width="4" height="4" fill="#78a8bc"/>
<rect x="72" y="16" width="4" height="4" fill="#78a8bc"/>
<rect x="76" y="16" width="4" height="4" fill="#78a8bc"/>
<rect x="80" y="16" width="4" height="4" fill="#78a8bc"/>
<rect x="84" y="16" width="4" height="4" fill="#78a8bc"/>
<rect x="12" y="20" width="4" height="4" fill="#5888a0"/>
<rect x="16" y="20" width="4" height="4" fill="#5888a0"/>
<rect x="20" y="20" width="4" height="4" fill="#5888a0"/>
<rect x="24" y="20" width="4" height="4" fill="#5888a0"/>
<rect x="28" y="20" width="4" height="4" fill="#5888a0"/>
<rect x="32" y="20" width="4" height="4" fill="#5888a0"/>
<rect x="36" y="20" width="4" height="4" fill="#5888a0"/>
<rect x="40" y="20" width="4" height="4" fill="#5888a0"/>
<rect x="44" y="20" width="4" height="4" fill="#5888a0"/>
<rect x="48" y="20" width="4" height="4" fill="#5888a0"/>
<rect x="52" y="20" width="4" height="4" fill="#5888a0"/>
<rect x="56" y="20" width="4" height="4" fill="#5888a0"/>
<rect x="60" y="20" width="4" height="4" fill="#5888a0"/>
<rect x="64" y="20" width="4" height="4" fill="#5888a0"/>
<rect x="68" y="20" width="4" height="4" fill="#5888a0"/>
<rect x="72" y="20" width="4" height="4" fill="#5888a0"/>
<rect x="76" y="20" width="4" height="4" fill="#5888a0"/>
<rect x="80" y="20" width="4" height="4" fill="#5888a0"/>
<rect x="20" y="8" width="4" height="4" fill="#bce0ec"/>
<rect x="24" y="8" width="4" height="4" fill="#bce0ec"/>
<rect x="28" y="8" width="4" height="4" fill="#bce0ec"/>
<rect x="56" y="8" width="4" height="4" fill="#bce0ec"/>
<rect x="60" y="8" width="4" height="4" fill="#bce0ec"/>
<rect x="36" y="12" width="4" height="4" fill="#bce0ec"/>
<rect x="40" y="12" width="4" height="4" fill="#bce0ec"/>
<rect x="44" y="12" width="4" height="4" fill="#bce0ec"/>
<rect x="8" y="4" width="4" height="4" fill="#14141e"/>
<rect x="8" y="16" width="4" height="4" fill="#14141e"/>
<rect x="84" y="4" width="4" height="4" fill="#14141e"/>
<rect x="84" y="16" width="4" height="4" fill="#14141e"/>
<rect x="4" y="8" width="4" height="4" fill="#14141e"/>
<rect x="4" y="12" width="4" height="4" fill="#14141e"/>
<rect x="88" y="8" width="4" height="4" fill="#14141e"/>
<rect x="88" y="12" width="4" height="4" fill="#14141e"/>
<rect x="12" y="0" width="4" height="4" fill="#14141e"/>
<rect x="12" y="20" width="4" height="4" fill="#14141e"/>
<rect x="16" y="0" width="4" height="4" fill="#14141e"/>
<rect x="16" y="20" width="4" height="4" fill="#14141e"/>
<rect x="20" y="0" width="4" height="4" fill="#14141e"/>
<rect x="20" y="20" width="4" height="4" fill="#14141e"/>
<rect x="24" y="0" width="4" height="4" fill="#14141e"/>
<rect x="24" y="20" width="4" height="4" fill="#14141e"/>
<rect x="28" y="0" width="4" height="4" fill="#14141e"/>
<rect x="28" y="20" width="4" height="4" fill="#14141e"/>
<rect x="32" y="0" width="4" height="4" fill="#14141e"/>
<rect x="32" y="20" width="4" height="4" fill="#14141e"/>
<rect x="36" y="0" width="4" height="4" fill="#14141e"/>
<rect x="36" y="20" width="4" height="4" fill="#14141e"/>
<rect x="40" y="0" width="4" height="4" fill="#14141e"/>
<rect x="40" y="20" width="4" height="4" fill="#14141e"/>
<rect x="44" y="0" width="4" height="4" fill="#14141e"/>
<rect x="44" y="20" width="4" height="4" fill="#14141e"/>
<rect x="48" y="0" width="4" height="4" fill="#14141e"/>
<rect x="48" y="20" width="4" height="4" fill="#14141e"/>
<rect x="52" y="0" width="4" height="4" fill="#14141e"/>
<rect x="52" y="20" width="4" height="4" fill="#14141e"/>
<rect x="56" y="0" width="4" height="4" fill="#14141e"/>
<rect x="56" y="20" width="4" height="4" fill="#14141e"/>
<rect x="60" y="0" width="4" height="4" fill="#14141e"/>
<rect x="60" y="20" width="4" height="4" fill="#14141e"/>
<rect x="64" y="0" width="4" height="4" fill="#14141e"/>
<rect x="64" y="20" width="4" height="4" fill="#14141e"/>
<rect x="68" y="0" width="4" height="4" fill="#14141e"/>
<rect x="68" y="20" width="4" height="4" fill="#14141e"/>
<rect x="72" y="0" width="4" height="4" fill="#14141e"/>
<rect x="72" y="20" width="4" height="4" fill="#14141e"/>
<rect x="76" y="0" width="4" height="4" fill="#14141e"/>
<rect x="76" y="20" width="4" height="4" fill="#14141e"/>
<rect x="80" y="0" width="4" height="4" fill="#14141e"/>
<rect x="80" y="20" width="4" height="4" fill="#14141e"/>
</svg>