<svg xmlns="http://www.w3.org/2000/svg" width="80" height="64">
  <!-- Antena -->
  <rect x="58" y="0"  width="4" height="18" fill="#a0b0c0"/>
  <rect x="56" y="14" width="8" height="4"  fill="#8090a8"/>
  <!-- Corpo -->
  <rect x="2"  y="14" width="76" height="48" fill="#7080a0"/>
  <rect x="0"  y="12" width="80" height="52" fill="#8090b0"/>
  <!-- Grade do alto-falante -->
  <rect x="8"  y="22" width="32" height="30" fill="#506070"/>
  <rect x="10" y="24" width="28" height="26" fill="#405060"/>
  <!-- Furos do alto-falante -->
  <rect x="12" y="27" width="4" height="4" fill="#607080"/>
  <rect x="20" y="27" width="4" height="4" fill="#607080"/>
  <rect x="28" y="27" width="4" height="4" fill="#607080"/>
  <rect x="12" y="35" width="4" height="4" fill="#607080"/>
  <rect x="20" y="35" width="4" height="4" fill="#607080"/>
  <rect x="28" y="35" width="4" height="4" fill="#607080"/>
  <rect x="12" y="43" width="4" height="4" fill="#607080"/>
  <rect x="20" y="43" width="4" height="4" fill="#607080"/>
  <rect x="28" y="43" width="4" height="4" fill="#607080"/>
  <!-- Dial de sintonia -->
  <rect x="48" y="26" width="20" height="18" fill="#5070a0"/>
  <rect x="50" y="28" width="16" height="14" fill="#7090c0"/>
  <rect x="56" y="24" width="4"  height="6"  fill="#e0e8f0"/>
  <!-- Botão de volume -->
  <rect x="50" y="50" width="14" height="8"  fill="#6080a0"/>
  <rect x="53" y="52" width="8"  height="4"  fill="#809ab8"/>
  <!-- Estática (indicando ligado) -->
  <rect x="48" y="22" width="4" height="2" fill="#d0e8f8" opacity="0.6"/>
  <rect x="56" y="22" width="6" height="2" fill="#d0e8f8" opacity="0.4"/>
</svg>
