<svg width="80" height="40" viewBox="0 0 80 40" xmlns="http://www.w3.org/2000/svg" shape-rendering="crispEdges">

<!-- Mound of dug-up sand (top centre) -->
<rect x="32" y="0" width="4" height="4" fill="#e8d4a0"/>
<rect x="36" y="0" width="4" height="4" fill="#f4e8bc"/>
<rect x="40" y="0" width="4" height="4" fill="#f4e8bc"/>
<rect x="44" y="0" width="4" height="4" fill="#e8d4a0"/>

<rect x="24" y="4" width="4" height="4" fill="#d4bc78"/>
<rect x="28" y="4" width="4" height="4" fill="#e0cc90"/>
<rect x="32" y="4" width="4" height="4" fill="#f4e8bc"/>
<rect x="36" y="4" width="4" height="4" fill="#fdf0c8"/>
<rect x="40" y="4" width="4" height="4" fill="#fdf0c8"/>
<rect x="44" y="4" width="4" height="4" fill="#f4e8bc"/>
<rect x="48" y="4" width="4" height="4" fill="#e0cc90"/>
<rect x="52" y="4" width="4" height="4" fill="#d4bc78"/>

<rect x="20" y="8" width="4" height="4" fill="#c8b070"/>
<rect x="24" y="8" width="4" height="4" fill="#d4bc78"/>
<rect x="28" y="8" width="4" height="4" fill="#e8d4a0"/>
<rect x="32" y="8" width="4" height="4" fill="#f4e8bc"/>
<rect x="36" y="8" width="4" height="4" fill="#fdf0c8"/>
<rect x="40" y="8" width="4" height="4" fill="#fdf0c8"/>
<rect x="44" y="8" width="4" height="4" fill="#f4e8bc"/>
<rect x="48" y="8" width="4" height="4" fill="#e8d4a0"/>
<rect x="52" y="8" width="4" height="4" fill="#d4bc78"/>
<rect x="56" y="8" width="4" height="4" fill="#c8b070"/>

<!-- Sandy ground with hole opening rim (y=12) -->
<rect x="0"  y="12" width="12" height="4" fill="#e0c898"/>
<rect x="12" y="12" width="4"  height="4" fill="#c8a870"/>
<rect x="16" y="12" width="4"  height="4" fill="#a07840"/>
<rect x="20" y="12" width="4"  height="4" fill="#7a5830"/>
<rect x="24" y="12" width="32" height="4" fill="#604020"/>
<rect x="56" y="12" width="4"  height="4" fill="#7a5830"/>
<rect x="60" y="12" width="4"  height="4" fill="#a07840"/>
<rect x="64" y="12" width="4"  height="4" fill="#c8a870"/>
<rect x="68" y="12" width="12" height="4" fill="#e0c898"/>

<!-- Hole - top band (y=16) -->
<rect x="0"  y="16" width="8"  height="4" fill="#e0c898"/>
<rect x="8"  y="16" width="4"  height="4" fill="#b08850"/>
<rect x="12" y="16" width="4"  height="4" fill="#6a4820"/>
<rect x="16" y="16" width="48" height="4" fill="#1a0e04"/>
<rect x="64" y="16" width="4"  height="4" fill="#6a4820"/>
<rect x="68" y="16" width="4"  height="4" fill="#b08850"/>
<rect x="72" y="16" width="8"  height="4" fill="#e0c898"/>

<!-- Hole - mid band (y=20) -->
<rect x="4"  y="20" width="4"  height="4" fill="#c8a870"/>
<rect x="8"  y="20" width="4"  height="4" fill="#7a5428"/>
<rect x="12" y="20" width="56" height="4" fill="#0c0604"/>
<rect x="68" y="20" width="4"  height="4" fill="#7a5428"/>
<rect x="72" y="20" width="4"  height="4" fill="#c8a870"/>

<!-- Hole - deep (y=24) -->
<rect x="8"  y="24" width="4"  height="4" fill="#a07840"/>
<rect x="12" y="24" width="4"  height="4" fill="#5a3c18"/>
<rect x="16" y="24" width="48" height="4" fill="#040200"/>
<rect x="64" y="24" width="4"  height="4" fill="#5a3c18"/>
<rect x="68" y="24" width="4"  height="4" fill="#a07840"/>

<!-- Hole - narrowing (y=28) -->
<rect x="16" y="28" width="4"  height="4" fill="#7a5428"/>
<rect x="20" y="28" width="4"  height="4" fill="#3a2410"/>
<rect x="24" y="28" width="32" height="4" fill="#020100"/>
<rect x="56" y="28" width="4"  height="4" fill="#3a2410"/>
<rect x="60" y="28" width="4"  height="4" fill="#7a5428"/>

<!-- Hole - bottom (y=32) -->
<rect x="24" y="32" width="4"  height="4" fill="#5a3c18"/>
<rect x="28" y="32" width="24" height="4" fill="#010000"/>
<rect x="52" y="32" width="4"  height="4" fill="#5a3c18"/>

<!-- Deepest shadow (y=36) -->
<rect x="32" y="36" width="16" height="4" fill="#604828"/>

</svg>
