<svg xmlns="http://www.w3.org/2000/svg" width="80" height="48">
  <!-- Asa esquerda (elevada) -->
  <rect x="0"  y="10" width="22" height="8"  fill="#c8c8c8"/>
  <rect x="4"  y="7"  width="18" height="7"  fill="#d8d8d8"/>
  <rect x="0"  y="8"  width="8"  height="4"  fill="#b8b8b8"/>
  <!-- Asa direita (elevada) -->
  <rect x="58" y="10" width="22" height="8"  fill="#c8c8c8"/>
  <rect x="58" y="7"  width="18" height="7"  fill="#d8d8d8"/>
  <rect x="72" y="8"  width="8"  height="4"  fill="#b8b8b8"/>
  <!-- Corpo -->
  <rect x="22" y="18" width="36" height="14" fill="#f0f0f0"/>
  <rect x="18" y="20" width="44" height="10" fill="#f8f8f8"/>
  <!-- Cabeça -->
  <rect x="46" y="12" width="16" height="14" fill="#f8f8f8"/>
  <!-- Bico -->
  <rect x="60" y="19" width="10" height="5"  fill="#e8b830"/>
  <rect x="66" y="21" width="6"  height="3"  fill="#c89010"/>
  <!-- Olho -->
  <rect x="52" y="14" width="4"  height="4"  fill="#1a1a1a"/>
  <rect x="53" y="15" width="2"  height="2"  fill="#404040"/>
  <!-- Patas -->
  <rect x="30" y="30" width="4"  height="10" fill="#e8b830"/>
  <rect x="26" y="38" width="12" height="3"  fill="#e8b830"/>
  <rect x="44" y="30" width="4"  height="10" fill="#e8b830"/>
  <rect x="40" y="38" width="12" height="3"  fill="#e8b830"/>
</svg>
